M48
; DRILL file KiCad 10.0.3 date 2026-06-05T13:22:03
; FORMAT={-:-/ absolute / metric / decimal}
; #@! TF.CreationDate,2026-06-05T13:22:03+01:00
; #@! TF.GenerationSoftware,Kicad,Pcbnew,10.0.3
; #@! TF.FileFunction,Plated,1,2,PTH
FMAT,2
METRIC
; #@! TA.AperFunction,Plated,PTH,ComponentDrill
T1C0.800
; #@! TA.AperFunction,Plated,PTH,ComponentDrill
T2C1.000
%
G90
G05
T1
X97.028Y-68.58
X97.028Y-76.2
X97.282Y-65.532
X99.568Y-68.58
X99.568Y-76.2
X102.108Y-68.58
X102.108Y-76.2
X104.648Y-54.356
X104.648Y-61.976
X104.648Y-68.58
X104.648Y-76.2
X104.902Y-65.532
X108.458Y-68.6
X108.458Y-71.1
X108.712Y-73.66
X108.712Y-81.28
X111.76Y-54.102
X111.76Y-61.722
X112.522Y-68.6
X112.522Y-71.1
X113.284Y-73.914
X113.284Y-81.534
X113.304Y-84.582
X115.804Y-84.582
X116.078Y-56.134
X118.618Y-66.04
X118.618Y-73.66
X118.912Y-61.722
X119.634Y-77.978
X119.634Y-85.598
X123.19Y-66.045
X123.19Y-73.665
X123.698Y-56.134
X123.912Y-61.722
X125.73Y-66.045
X125.73Y-73.665
X127.508Y-76.708
X127.508Y-84.328
X127.762Y-54.356
X127.762Y-61.976
X128.27Y-66.045
X128.27Y-73.665
X130.81Y-66.045
X130.81Y-73.665
X131.064Y-76.728
X131.064Y-79.228
X132.842Y-54.356
X132.842Y-61.976
X136.652Y-79.248
X136.652Y-86.868
X137.922Y-69.337
X137.922Y-76.957
X139.954Y-64.106
X139.954Y-66.646
X140.462Y-69.337
X140.462Y-76.957
X141.478Y-79.502
X141.478Y-87.122
X143.002Y-61.468
X143.002Y-66.548
X143.002Y-69.337
X143.002Y-76.957
X143.022Y-56.642
X145.522Y-56.642
X145.542Y-69.337
X145.542Y-76.957
X146.304Y-79.756
X146.304Y-87.376
X150.622Y-61.468
X150.622Y-66.548
X150.876Y-69.596
X150.876Y-77.216
T2
X109.982Y-65.278
X112.522Y-65.278
X138.176Y-53.594
X138.176Y-56.134
X138.176Y-58.674
X138.176Y-61.214
X150.368Y-81.783
X150.368Y-84.323
M30
