M48
; DRILL file KiCad 10.0.3 date 2026-06-05T13:21:19
; FORMAT={-:-/ absolute / metric / decimal}
; #@! TF.CreationDate,2026-06-05T13:21:19+01:00
; #@! TF.GenerationSoftware,Kicad,Pcbnew,10.0.3
; #@! TF.FileFunction,Plated,1,2,PTH
FMAT,2
METRIC
; #@! TA.AperFunction,Plated,PTH,ComponentDrill
T1C0.800
; #@! TA.AperFunction,Plated,PTH,ComponentDrill
T2C1.000
%
G90
G05
T1
X69.596Y-72.898
X69.596Y-80.518
X71.668Y-89.662
X74.168Y-72.644
X74.168Y-80.264
X76.668Y-89.662
X76.748Y-86.36
X77.47Y-69.088
X77.475Y-73.152
X77.475Y-75.692
X77.475Y-78.232
X77.475Y-80.772
X79.502Y-89.408
X80.997Y-83.566
X81.748Y-86.36
X84.602Y-86.36
X84.807Y-83.566
X85.09Y-69.088
X85.095Y-73.152
X85.095Y-75.692
X85.095Y-78.232
X85.095Y-80.772
X87.102Y-86.36
X87.122Y-89.408
X87.376Y-72.898
X87.884Y-75.946
X87.884Y-83.566
X91.186Y-75.946
X91.186Y-83.566
X94.996Y-72.898
T2
X70.104Y-85.344
X72.644Y-85.344
X88.9Y-68.072
X91.44Y-68.072
X93.98Y-68.072
M30
