%TF.GenerationSoftware,KiCad,Pcbnew,10.0.3*%
%TF.CreationDate,2026-06-05T13:22:49+01:00*%
%TF.ProjectId,pcbs,70636273-2e6b-4696-9361-645f70636258,rev?*%
%TF.SameCoordinates,Original*%
%TF.FileFunction,Copper,L1,Top*%
%TF.FilePolarity,Positive*%
%FSLAX46Y46*%
G04 Gerber Fmt 4.6, Leading zero omitted, Abs format (unit mm)*
G04 Created by KiCad (PCBNEW 10.0.3) date 2026-06-05 13:22:49*
%MOMM*%
%LPD*%
G01*
G04 APERTURE LIST*
G04 Aperture macros list*
%AMRoundRect*
0 Rectangle with rounded corners*
0 $1 Rounding radius*
0 $2 $3 $4 $5 $6 $7 $8 $9 X,Y pos of 4 corners*
0 Add a 4 corners polygon primitive as box body*
4,1,4,$2,$3,$4,$5,$6,$7,$8,$9,$2,$3,0*
0 Add four circle primitives for the rounded corners*
1,1,$1+$1,$2,$3*
1,1,$1+$1,$4,$5*
1,1,$1+$1,$6,$7*
1,1,$1+$1,$8,$9*
0 Add four rect primitives between the rounded corners*
20,1,$1+$1,$2,$3,$4,$5,0*
20,1,$1+$1,$4,$5,$6,$7,0*
20,1,$1+$1,$6,$7,$8,$9,0*
20,1,$1+$1,$8,$9,$2,$3,0*%
G04 Aperture macros list end*
%TA.AperFunction,ComponentPad*%
%ADD10R,1.700000X1.700000*%
%TD*%
%TA.AperFunction,ComponentPad*%
%ADD11C,1.700000*%
%TD*%
%TA.AperFunction,ComponentPad*%
%ADD12C,1.600000*%
%TD*%
%TA.AperFunction,ComponentPad*%
%ADD13RoundRect,0.250000X0.550000X-0.550000X0.550000X0.550000X-0.550000X0.550000X-0.550000X-0.550000X0*%
%TD*%
%TA.AperFunction,ComponentPad*%
%ADD14RoundRect,0.250000X-0.550000X0.550000X-0.550000X-0.550000X0.550000X-0.550000X0.550000X0.550000X0*%
%TD*%
%TA.AperFunction,Conductor*%
%ADD15C,0.200000*%
%TD*%
G04 APERTURE END LIST*
D10*
%TO.P,J1,1,Pin_1_1*%
%TO.N,Net-(D1-K)*%
X138176000Y-61214000D03*
D11*
%TO.P,J1,2,Pin_2_2*%
%TO.N,Net-(J1-Pin_2)*%
X138176000Y-58674000D03*
%TO.P,J1,3,Pin_3_3*%
%TO.N,GND*%
X138176000Y-56134000D03*
%TO.P,J1,4,Pin_4_4*%
%TO.N,+3.3V*%
X138176000Y-53594000D03*
%TD*%
D12*
%TO.P,R14,1*%
%TO.N,Net-(U3A--)*%
X123698000Y-56134000D03*
%TO.P,R14,2*%
%TO.N,GND*%
X116078000Y-56134000D03*
%TD*%
D13*
%TO.P,U4,1*%
%TO.N,Net-(U4B-+)*%
X137922000Y-76957000D03*
D12*
%TO.P,U4,2,-_2*%
%TO.N,Net-(U4A--)*%
X140462000Y-76957000D03*
%TO.P,U4,3,+_3*%
%TO.N,Net-(J4-Pin_1)*%
X143002000Y-76957000D03*
%TO.P,U4,4,V-_4*%
%TO.N,GND*%
X145542000Y-76957000D03*
%TO.P,U4,5,+_5*%
%TO.N,Net-(U4B-+)*%
X145542000Y-69337000D03*
%TO.P,U4,6,-_6*%
%TO.N,Net-(U4B--)*%
X143002000Y-69337000D03*
%TO.P,U4,7*%
%TO.N,Net-(D1-A)*%
X140462000Y-69337000D03*
%TO.P,U4,8,V+_8*%
%TO.N,+3.3V*%
X137922000Y-69337000D03*
%TD*%
%TO.P,R22,1*%
%TO.N,Net-(D1-A)*%
X143002000Y-66548000D03*
%TO.P,R22,2*%
%TO.N,Net-(U4B--)*%
X150622000Y-66548000D03*
%TD*%
D10*
%TO.P,J3,1,Pin_1_1*%
%TO.N,Net-(J3-Pin_1)*%
X112522000Y-65278000D03*
D11*
%TO.P,J3,2,Pin_2_2*%
%TO.N,GND*%
X109982000Y-65278000D03*
%TD*%
D14*
%TO.P,D1,1,K_1*%
%TO.N,Net-(D1-K)*%
X139954000Y-64106315D03*
D12*
%TO.P,D1,2,A_2*%
%TO.N,Net-(D1-A)*%
X139954000Y-66646315D03*
%TD*%
%TO.P,R15,1*%
%TO.N,+3.3V*%
X127762000Y-54356000D03*
%TO.P,R15,2*%
%TO.N,Net-(U3A--)*%
X127762000Y-61976000D03*
%TD*%
%TO.P,R16,1*%
%TO.N,+3.3V*%
X132842000Y-54356000D03*
%TO.P,R16,2*%
%TO.N,Net-(J1-Pin_2)*%
X132842000Y-61976000D03*
%TD*%
%TO.P,R20,1*%
%TO.N,Net-(U4B-+)*%
X136652000Y-79248000D03*
%TO.P,R20,2*%
%TO.N,Net-(U4A--)*%
X136652000Y-86868000D03*
%TD*%
D14*
%TO.P,U3,1*%
%TO.N,Net-(J1-Pin_2)*%
X130810000Y-66045000D03*
D12*
%TO.P,U3,2,-_2*%
%TO.N,Net-(U3A--)*%
X128270000Y-66045000D03*
%TO.P,U3,3,+_3*%
%TO.N,Net-(U3A-+)*%
X125730000Y-66045000D03*
%TO.P,U3,4,V-_4*%
%TO.N,GND*%
X123190000Y-66045000D03*
%TO.P,U3,5,+_5*%
X123190000Y-73665000D03*
%TO.P,U3,6,-_6*%
X125730000Y-73665000D03*
%TO.P,U3,7*%
%TO.N,Net-(R24-Pad2)*%
X128270000Y-73665000D03*
%TO.P,U3,8,V+_8*%
%TO.N,+3.3V*%
X130810000Y-73665000D03*
%TD*%
%TO.P,R19,1*%
%TO.N,GND*%
X141478000Y-87122000D03*
%TO.P,R19,2*%
%TO.N,Net-(U4A--)*%
X141478000Y-79502000D03*
%TD*%
%TO.P,R18,1*%
%TO.N,Net-(J4-Pin_1)*%
X146304000Y-79756000D03*
%TO.P,R18,2*%
%TO.N,GND*%
X146304000Y-87376000D03*
%TD*%
D13*
%TO.P,U2,1*%
%TO.N,Net-(C6-Pad1)*%
X97028000Y-76200000D03*
D12*
%TO.P,U2,2,-_2*%
%TO.N,/Vg*%
X99568000Y-76200000D03*
%TO.P,U2,3,+_3*%
%TO.N,Net-(U2A-+)*%
X102108000Y-76200000D03*
%TO.P,U2,4,V-_4*%
%TO.N,GND*%
X104648000Y-76200000D03*
%TO.P,U2,5,+_5*%
%TO.N,/Vg*%
X104648000Y-68580000D03*
%TO.P,U2,6,-_6*%
%TO.N,Net-(U2B--)*%
X102108000Y-68580000D03*
%TO.P,U2,7*%
X99568000Y-68580000D03*
%TO.P,U2,8,V+_8*%
%TO.N,+3.3V*%
X97028000Y-68580000D03*
%TD*%
%TO.P,R11,1*%
%TO.N,Net-(U2A-+)*%
X108712000Y-73660000D03*
%TO.P,R11,2*%
%TO.N,Net-(C6-Pad1)*%
X108712000Y-81280000D03*
%TD*%
%TO.P,R12,1*%
%TO.N,GND*%
X119634000Y-85598000D03*
%TO.P,R12,2*%
%TO.N,Net-(C6-Pad2)*%
X119634000Y-77978000D03*
%TD*%
%TO.P,R8,1*%
%TO.N,/Vg*%
X104902000Y-65532000D03*
%TO.P,R8,2*%
%TO.N,+3.3V*%
X97282000Y-65532000D03*
%TD*%
%TO.P,C7,1*%
%TO.N,Net-(U3A-+)*%
X123912000Y-61722000D03*
%TO.P,C7,2*%
%TO.N,GND*%
X118912000Y-61722000D03*
%TD*%
%TO.P,R13,1*%
%TO.N,Net-(C6-Pad2)*%
X118618000Y-73660000D03*
%TO.P,R13,2*%
%TO.N,Net-(U3A-+)*%
X118618000Y-66040000D03*
%TD*%
%TO.P,R21,1*%
%TO.N,GND*%
X150876000Y-77216000D03*
%TO.P,R21,2*%
%TO.N,Net-(U4B--)*%
X150876000Y-69596000D03*
%TD*%
%TO.P,R9,1*%
%TO.N,GND*%
X104648000Y-54356000D03*
%TO.P,R9,2*%
%TO.N,/Vg*%
X104648000Y-61976000D03*
%TD*%
%TO.P,C8,1*%
%TO.N,GND*%
X145522000Y-56642000D03*
%TO.P,C8,2*%
%TO.N,Net-(D1-K)*%
X143022000Y-56642000D03*
%TD*%
D10*
%TO.P,J4,1,Pin_1_1*%
%TO.N,Net-(J4-Pin_1)*%
X150368000Y-81783000D03*
D11*
%TO.P,J4,2,Pin_2_2*%
%TO.N,GND*%
X150368000Y-84323000D03*
%TD*%
D12*
%TO.P,C3,1*%
%TO.N,+3.3V*%
X131064000Y-76728000D03*
%TO.P,C3,2*%
%TO.N,GND*%
X131064000Y-79228000D03*
%TD*%
%TO.P,R23,1*%
%TO.N,GND*%
X150622000Y-61468000D03*
%TO.P,R23,2*%
%TO.N,Net-(D1-K)*%
X143002000Y-61468000D03*
%TD*%
%TO.P,C2,1*%
%TO.N,/Vg*%
X108458000Y-68600000D03*
%TO.P,C2,2*%
%TO.N,GND*%
X108458000Y-71100000D03*
%TD*%
%TO.P,C6,1*%
%TO.N,Net-(C6-Pad1)*%
X113304000Y-84582000D03*
%TO.P,C6,2*%
%TO.N,Net-(C6-Pad2)*%
X115804000Y-84582000D03*
%TD*%
%TO.P,C5,1*%
%TO.N,Net-(J3-Pin_1)*%
X112522000Y-68600000D03*
%TO.P,C5,2*%
%TO.N,Net-(C5-Pad2)*%
X112522000Y-71100000D03*
%TD*%
%TO.P,R24,1*%
%TO.N,GND*%
X127508000Y-84328000D03*
%TO.P,R24,2*%
%TO.N,Net-(R24-Pad2)*%
X127508000Y-76708000D03*
%TD*%
%TO.P,R17,1*%
%TO.N,Net-(J3-Pin_1)*%
X111760000Y-61722000D03*
%TO.P,R17,2*%
%TO.N,+3.3V*%
X111760000Y-54102000D03*
%TD*%
%TO.P,R10,1*%
%TO.N,Net-(C5-Pad2)*%
X113284000Y-73914000D03*
%TO.P,R10,2*%
%TO.N,Net-(U2A-+)*%
X113284000Y-81534000D03*
%TD*%
%TO.N,Net-(D1-K)*%
D15*
X143002000Y-61468000D02*
X143002000Y-56662000D01*
X138176000Y-62328315D02*
X139954000Y-64106315D01*
X139954000Y-64106315D02*
X140363685Y-64106315D01*
X143002000Y-56662000D02*
X143022000Y-56642000D01*
X138176000Y-61214000D02*
X138176000Y-62328315D01*
X140363685Y-64106315D02*
X143002000Y-61468000D01*
%TO.N,Net-(J1-Pin_2)*%
X132842000Y-61976000D02*
X132842000Y-64013000D01*
X138176000Y-58674000D02*
X135890000Y-58674000D01*
X135890000Y-58674000D02*
X132842000Y-61722000D01*
X132842000Y-61722000D02*
X132842000Y-61976000D01*
X132842000Y-64013000D02*
X130810000Y-66045000D01*
%TO.N,+3.3V*%
X133594000Y-73665000D02*
X137922000Y-69337000D01*
X111760000Y-54102000D02*
X108712000Y-54102000D01*
X97282000Y-65532000D02*
X97282000Y-68326000D01*
X97282000Y-68326000D02*
X97028000Y-68580000D01*
X139326000Y-59150346D02*
X138532346Y-59944000D01*
X136652000Y-68067000D02*
X137922000Y-69337000D01*
X127762000Y-54356000D02*
X112014000Y-54356000D01*
X108712000Y-54102000D02*
X97282000Y-65532000D01*
X138176000Y-53594000D02*
X139326000Y-54744000D01*
X127762000Y-54356000D02*
X132842000Y-54356000D01*
X136652000Y-59944000D02*
X136652000Y-68067000D01*
X137414000Y-54356000D02*
X138176000Y-53594000D01*
X130810000Y-73665000D02*
X130810000Y-76474000D01*
X138532346Y-59944000D02*
X136652000Y-59944000D01*
X139326000Y-54744000D02*
X139326000Y-59150346D01*
X112014000Y-54356000D02*
X111760000Y-54102000D01*
X132842000Y-54356000D02*
X137414000Y-54356000D01*
X130810000Y-76474000D02*
X131064000Y-76728000D01*
X130810000Y-73665000D02*
X133594000Y-73665000D01*
%TO.N,Net-(U3A--)*%
X128270000Y-66045000D02*
X128270000Y-62484000D01*
X127762000Y-60198000D02*
X123698000Y-56134000D01*
X127762000Y-61976000D02*
X127762000Y-60198000D01*
X128270000Y-62484000D02*
X127762000Y-61976000D01*
%TO.N,Net-(U4B-+)*%
X137922000Y-76957000D02*
X137922000Y-77978000D01*
X145542000Y-69337000D02*
X137922000Y-76957000D01*
X137922000Y-77978000D02*
X136652000Y-79248000D01*
%TO.N,Net-(U4A--)*%
X141478000Y-82042000D02*
X136652000Y-86868000D01*
X140462000Y-78486000D02*
X141478000Y-79502000D01*
X141478000Y-79502000D02*
X141478000Y-82042000D01*
X140462000Y-76957000D02*
X140462000Y-78486000D01*
%TO.N,Net-(J4-Pin_1)*%
X143002000Y-76957000D02*
X145801000Y-79756000D01*
X148341000Y-79756000D02*
X150368000Y-81783000D01*
X145801000Y-79756000D02*
X146304000Y-79756000D01*
X146304000Y-79756000D02*
X148341000Y-79756000D01*
%TO.N,Net-(U4B--)*%
X144102000Y-68237000D02*
X143002000Y-69337000D01*
X150876000Y-69596000D02*
X150876000Y-66802000D01*
X150876000Y-66802000D02*
X150622000Y-66548000D01*
X150876000Y-69596000D02*
X149517000Y-68237000D01*
X149517000Y-68237000D02*
X144102000Y-68237000D01*
%TO.N,Net-(D1-A)*%
X140462000Y-67154315D02*
X139954000Y-66646315D01*
X139954000Y-66646315D02*
X142903685Y-66646315D01*
X140462000Y-69337000D02*
X140462000Y-67154315D01*
X142903685Y-66646315D02*
X143002000Y-66548000D01*
%TO.N,Net-(J3-Pin_1)*%
X112522000Y-65278000D02*
X112522000Y-68600000D01*
X111760000Y-61722000D02*
X111760000Y-64516000D01*
X111760000Y-64516000D02*
X112522000Y-65278000D01*
%TO.N,Net-(U3A-+)*%
X122936000Y-61722000D02*
X123912000Y-61722000D01*
X123912000Y-61722000D02*
X123912000Y-64227000D01*
X118618000Y-66040000D02*
X122936000Y-61722000D01*
X123912000Y-64227000D02*
X125730000Y-66045000D01*
%TO.N,Net-(R24-Pad2)*%
X127508000Y-76708000D02*
X127508000Y-74427000D01*
X127508000Y-74427000D02*
X128270000Y-73665000D01*
%TO.N,Net-(C6-Pad1)*%
X97028000Y-76200000D02*
X102108000Y-81280000D01*
X102108000Y-81280000D02*
X108712000Y-81280000D01*
X112014000Y-84582000D02*
X108712000Y-81280000D01*
X113304000Y-84582000D02*
X112014000Y-84582000D01*
%TO.N,/Vg*%
X104648000Y-68580000D02*
X104648000Y-71120000D01*
X104648000Y-61976000D02*
X104648000Y-65278000D01*
X104648000Y-71120000D02*
X99568000Y-76200000D01*
X104648000Y-66040000D02*
X104648000Y-68580000D01*
X104902000Y-65532000D02*
X104902000Y-65786000D01*
X104648000Y-65278000D02*
X104902000Y-65532000D01*
X104648000Y-68580000D02*
X108438000Y-68580000D01*
X104902000Y-65786000D02*
X104648000Y-66040000D01*
X108438000Y-68580000D02*
X108458000Y-68600000D01*
%TO.N,Net-(U2A-+)*%
X104648000Y-73660000D02*
X108712000Y-73660000D01*
X102108000Y-76200000D02*
X104648000Y-73660000D01*
X113284000Y-78486000D02*
X113284000Y-81534000D01*
X108712000Y-73660000D02*
X108712000Y-73914000D01*
X108712000Y-73914000D02*
X113284000Y-78486000D01*
%TO.N,Net-(U2B--)*%
X99568000Y-68580000D02*
X102108000Y-68580000D01*
%TO.N,Net-(C6-Pad2)*%
X115804000Y-84582000D02*
X115804000Y-81808000D01*
X119634000Y-77978000D02*
X119634000Y-74676000D01*
X119634000Y-74676000D02*
X118618000Y-73660000D01*
X115804000Y-81808000D02*
X119634000Y-77978000D01*
%TO.N,Net-(C5-Pad2)*%
X112522000Y-73152000D02*
X113284000Y-73914000D01*
X112522000Y-71100000D02*
X112522000Y-73152000D01*
%TD*%
M02*
