%TF.GenerationSoftware,KiCad,Pcbnew,10.0.3*%
%TF.CreationDate,2026-06-05T13:22:49+01:00*%
%TF.ProjectId,pcbs,70636273-2e6b-4696-9361-645f70636258,rev?*%
%TF.SameCoordinates,Original*%
%TF.FileFunction,Legend,Top*%
%TF.FilePolarity,Positive*%
%FSLAX46Y46*%
G04 Gerber Fmt 4.6, Leading zero omitted, Abs format (unit mm)*
G04 Created by KiCad (PCBNEW 10.0.3) date 2026-06-05 13:22:49*
%MOMM*%
%LPD*%
G01*
G04 APERTURE LIST*
%ADD10C,0.150000*%
%ADD11C,0.120000*%
G04 APERTURE END LIST*
D10*
X140636666Y-59652819D02*
X140636666Y-60367104D01*
X140636666Y-60367104D02*
X140589047Y-60509961D01*
X140589047Y-60509961D02*
X140493809Y-60605200D01*
X140493809Y-60605200D02*
X140350952Y-60652819D01*
X140350952Y-60652819D02*
X140255714Y-60652819D01*
X141636666Y-60652819D02*
X141065238Y-60652819D01*
X141350952Y-60652819D02*
X141350952Y-59652819D01*
X141350952Y-59652819D02*
X141255714Y-59795676D01*
X141255714Y-59795676D02*
X141160476Y-59890914D01*
X141160476Y-59890914D02*
X141065238Y-59938533D01*
X119245142Y-58958819D02*
X118911809Y-58482628D01*
X118673714Y-58958819D02*
X118673714Y-57958819D01*
X118673714Y-57958819D02*
X119054666Y-57958819D01*
X119054666Y-57958819D02*
X119149904Y-58006438D01*
X119149904Y-58006438D02*
X119197523Y-58054057D01*
X119197523Y-58054057D02*
X119245142Y-58149295D01*
X119245142Y-58149295D02*
X119245142Y-58292152D01*
X119245142Y-58292152D02*
X119197523Y-58387390D01*
X119197523Y-58387390D02*
X119149904Y-58435009D01*
X119149904Y-58435009D02*
X119054666Y-58482628D01*
X119054666Y-58482628D02*
X118673714Y-58482628D01*
X120197523Y-58958819D02*
X119626095Y-58958819D01*
X119911809Y-58958819D02*
X119911809Y-57958819D01*
X119911809Y-57958819D02*
X119816571Y-58101676D01*
X119816571Y-58101676D02*
X119721333Y-58196914D01*
X119721333Y-58196914D02*
X119626095Y-58244533D01*
X121054666Y-58292152D02*
X121054666Y-58958819D01*
X120816571Y-57911200D02*
X120578476Y-58625485D01*
X120578476Y-58625485D02*
X121197523Y-58625485D01*
X135046819Y-73908904D02*
X135856342Y-73908904D01*
X135856342Y-73908904D02*
X135951580Y-73861285D01*
X135951580Y-73861285D02*
X135999200Y-73813666D01*
X135999200Y-73813666D02*
X136046819Y-73718428D01*
X136046819Y-73718428D02*
X136046819Y-73527952D01*
X136046819Y-73527952D02*
X135999200Y-73432714D01*
X135999200Y-73432714D02*
X135951580Y-73385095D01*
X135951580Y-73385095D02*
X135856342Y-73337476D01*
X135856342Y-73337476D02*
X135046819Y-73337476D01*
X135380152Y-72432714D02*
X136046819Y-72432714D01*
X134999200Y-72670809D02*
X135713485Y-72908904D01*
X135713485Y-72908904D02*
X135713485Y-72289857D01*
X146169142Y-64632819D02*
X145835809Y-64156628D01*
X145597714Y-64632819D02*
X145597714Y-63632819D01*
X145597714Y-63632819D02*
X145978666Y-63632819D01*
X145978666Y-63632819D02*
X146073904Y-63680438D01*
X146073904Y-63680438D02*
X146121523Y-63728057D01*
X146121523Y-63728057D02*
X146169142Y-63823295D01*
X146169142Y-63823295D02*
X146169142Y-63966152D01*
X146169142Y-63966152D02*
X146121523Y-64061390D01*
X146121523Y-64061390D02*
X146073904Y-64109009D01*
X146073904Y-64109009D02*
X145978666Y-64156628D01*
X145978666Y-64156628D02*
X145597714Y-64156628D01*
X146550095Y-63728057D02*
X146597714Y-63680438D01*
X146597714Y-63680438D02*
X146692952Y-63632819D01*
X146692952Y-63632819D02*
X146931047Y-63632819D01*
X146931047Y-63632819D02*
X147026285Y-63680438D01*
X147026285Y-63680438D02*
X147073904Y-63728057D01*
X147073904Y-63728057D02*
X147121523Y-63823295D01*
X147121523Y-63823295D02*
X147121523Y-63918533D01*
X147121523Y-63918533D02*
X147073904Y-64061390D01*
X147073904Y-64061390D02*
X146502476Y-64632819D01*
X146502476Y-64632819D02*
X147121523Y-64632819D01*
X147502476Y-63728057D02*
X147550095Y-63680438D01*
X147550095Y-63680438D02*
X147645333Y-63632819D01*
X147645333Y-63632819D02*
X147883428Y-63632819D01*
X147883428Y-63632819D02*
X147978666Y-63680438D01*
X147978666Y-63680438D02*
X148026285Y-63728057D01*
X148026285Y-63728057D02*
X148073904Y-63823295D01*
X148073904Y-63823295D02*
X148073904Y-63918533D01*
X148073904Y-63918533D02*
X148026285Y-64061390D01*
X148026285Y-64061390D02*
X147454857Y-64632819D01*
X147454857Y-64632819D02*
X148073904Y-64632819D01*
X114356819Y-65611333D02*
X115071104Y-65611333D01*
X115071104Y-65611333D02*
X115213961Y-65658952D01*
X115213961Y-65658952D02*
X115309200Y-65754190D01*
X115309200Y-65754190D02*
X115356819Y-65897047D01*
X115356819Y-65897047D02*
X115356819Y-65992285D01*
X114356819Y-65230380D02*
X114356819Y-64611333D01*
X114356819Y-64611333D02*
X114737771Y-64944666D01*
X114737771Y-64944666D02*
X114737771Y-64801809D01*
X114737771Y-64801809D02*
X114785390Y-64706571D01*
X114785390Y-64706571D02*
X114833009Y-64658952D01*
X114833009Y-64658952D02*
X114928247Y-64611333D01*
X114928247Y-64611333D02*
X115166342Y-64611333D01*
X115166342Y-64611333D02*
X115261580Y-64658952D01*
X115261580Y-64658952D02*
X115309200Y-64706571D01*
X115309200Y-64706571D02*
X115356819Y-64801809D01*
X115356819Y-64801809D02*
X115356819Y-65087523D01*
X115356819Y-65087523D02*
X115309200Y-65182761D01*
X115309200Y-65182761D02*
X115261580Y-65230380D01*
X150304666Y-50152819D02*
X149971333Y-49676628D01*
X149733238Y-50152819D02*
X149733238Y-49152819D01*
X149733238Y-49152819D02*
X150114190Y-49152819D01*
X150114190Y-49152819D02*
X150209428Y-49200438D01*
X150209428Y-49200438D02*
X150257047Y-49248057D01*
X150257047Y-49248057D02*
X150304666Y-49343295D01*
X150304666Y-49343295D02*
X150304666Y-49486152D01*
X150304666Y-49486152D02*
X150257047Y-49581390D01*
X150257047Y-49581390D02*
X150209428Y-49629009D01*
X150209428Y-49629009D02*
X150114190Y-49676628D01*
X150114190Y-49676628D02*
X149733238Y-49676628D01*
X150733238Y-49629009D02*
X151066571Y-49629009D01*
X151209428Y-50152819D02*
X150733238Y-50152819D01*
X150733238Y-50152819D02*
X150733238Y-49152819D01*
X150733238Y-49152819D02*
X151209428Y-49152819D01*
X151971333Y-49629009D02*
X151638000Y-49629009D01*
X151638000Y-50152819D02*
X151638000Y-49152819D01*
X151638000Y-49152819D02*
X152114190Y-49152819D01*
X152638000Y-49152819D02*
X152638000Y-49390914D01*
X152399905Y-49295676D02*
X152638000Y-49390914D01*
X152638000Y-49390914D02*
X152876095Y-49295676D01*
X152495143Y-49581390D02*
X152638000Y-49390914D01*
X152638000Y-49390914D02*
X152780857Y-49581390D01*
X153399905Y-49152819D02*
X153399905Y-49390914D01*
X153161810Y-49295676D02*
X153399905Y-49390914D01*
X153399905Y-49390914D02*
X153638000Y-49295676D01*
X153257048Y-49581390D02*
X153399905Y-49390914D01*
X153399905Y-49390914D02*
X153542762Y-49581390D01*
X138376819Y-66016094D02*
X137376819Y-66016094D01*
X137376819Y-66016094D02*
X137376819Y-65777999D01*
X137376819Y-65777999D02*
X137424438Y-65635142D01*
X137424438Y-65635142D02*
X137519676Y-65539904D01*
X137519676Y-65539904D02*
X137614914Y-65492285D01*
X137614914Y-65492285D02*
X137805390Y-65444666D01*
X137805390Y-65444666D02*
X137948247Y-65444666D01*
X137948247Y-65444666D02*
X138138723Y-65492285D01*
X138138723Y-65492285D02*
X138233961Y-65539904D01*
X138233961Y-65539904D02*
X138329200Y-65635142D01*
X138329200Y-65635142D02*
X138376819Y-65777999D01*
X138376819Y-65777999D02*
X138376819Y-66016094D01*
X138376819Y-64492285D02*
X138376819Y-65063713D01*
X138376819Y-64777999D02*
X137376819Y-64777999D01*
X137376819Y-64777999D02*
X137519676Y-64873237D01*
X137519676Y-64873237D02*
X137614914Y-64968475D01*
X137614914Y-64968475D02*
X137662533Y-65063713D01*
X130756819Y-58554857D02*
X130280628Y-58888190D01*
X130756819Y-59126285D02*
X129756819Y-59126285D01*
X129756819Y-59126285D02*
X129756819Y-58745333D01*
X129756819Y-58745333D02*
X129804438Y-58650095D01*
X129804438Y-58650095D02*
X129852057Y-58602476D01*
X129852057Y-58602476D02*
X129947295Y-58554857D01*
X129947295Y-58554857D02*
X130090152Y-58554857D01*
X130090152Y-58554857D02*
X130185390Y-58602476D01*
X130185390Y-58602476D02*
X130233009Y-58650095D01*
X130233009Y-58650095D02*
X130280628Y-58745333D01*
X130280628Y-58745333D02*
X130280628Y-59126285D01*
X130756819Y-57602476D02*
X130756819Y-58173904D01*
X130756819Y-57888190D02*
X129756819Y-57888190D01*
X129756819Y-57888190D02*
X129899676Y-57983428D01*
X129899676Y-57983428D02*
X129994914Y-58078666D01*
X129994914Y-58078666D02*
X130042533Y-58173904D01*
X129756819Y-56697714D02*
X129756819Y-57173904D01*
X129756819Y-57173904D02*
X130233009Y-57221523D01*
X130233009Y-57221523D02*
X130185390Y-57173904D01*
X130185390Y-57173904D02*
X130137771Y-57078666D01*
X130137771Y-57078666D02*
X130137771Y-56840571D01*
X130137771Y-56840571D02*
X130185390Y-56745333D01*
X130185390Y-56745333D02*
X130233009Y-56697714D01*
X130233009Y-56697714D02*
X130328247Y-56650095D01*
X130328247Y-56650095D02*
X130566342Y-56650095D01*
X130566342Y-56650095D02*
X130661580Y-56697714D01*
X130661580Y-56697714D02*
X130709200Y-56745333D01*
X130709200Y-56745333D02*
X130756819Y-56840571D01*
X130756819Y-56840571D02*
X130756819Y-57078666D01*
X130756819Y-57078666D02*
X130709200Y-57173904D01*
X130709200Y-57173904D02*
X130661580Y-57221523D01*
X135666819Y-58808857D02*
X135190628Y-59142190D01*
X135666819Y-59380285D02*
X134666819Y-59380285D01*
X134666819Y-59380285D02*
X134666819Y-58999333D01*
X134666819Y-58999333D02*
X134714438Y-58904095D01*
X134714438Y-58904095D02*
X134762057Y-58856476D01*
X134762057Y-58856476D02*
X134857295Y-58808857D01*
X134857295Y-58808857D02*
X135000152Y-58808857D01*
X135000152Y-58808857D02*
X135095390Y-58856476D01*
X135095390Y-58856476D02*
X135143009Y-58904095D01*
X135143009Y-58904095D02*
X135190628Y-58999333D01*
X135190628Y-58999333D02*
X135190628Y-59380285D01*
X135666819Y-57856476D02*
X135666819Y-58427904D01*
X135666819Y-58142190D02*
X134666819Y-58142190D01*
X134666819Y-58142190D02*
X134809676Y-58237428D01*
X134809676Y-58237428D02*
X134904914Y-58332666D01*
X134904914Y-58332666D02*
X134952533Y-58427904D01*
X134666819Y-56999333D02*
X134666819Y-57189809D01*
X134666819Y-57189809D02*
X134714438Y-57285047D01*
X134714438Y-57285047D02*
X134762057Y-57332666D01*
X134762057Y-57332666D02*
X134904914Y-57427904D01*
X134904914Y-57427904D02*
X135095390Y-57475523D01*
X135095390Y-57475523D02*
X135476342Y-57475523D01*
X135476342Y-57475523D02*
X135571580Y-57427904D01*
X135571580Y-57427904D02*
X135619200Y-57380285D01*
X135619200Y-57380285D02*
X135666819Y-57285047D01*
X135666819Y-57285047D02*
X135666819Y-57094571D01*
X135666819Y-57094571D02*
X135619200Y-56999333D01*
X135619200Y-56999333D02*
X135571580Y-56951714D01*
X135571580Y-56951714D02*
X135476342Y-56904095D01*
X135476342Y-56904095D02*
X135238247Y-56904095D01*
X135238247Y-56904095D02*
X135143009Y-56951714D01*
X135143009Y-56951714D02*
X135095390Y-56999333D01*
X135095390Y-56999333D02*
X135047771Y-57094571D01*
X135047771Y-57094571D02*
X135047771Y-57285047D01*
X135047771Y-57285047D02*
X135095390Y-57380285D01*
X135095390Y-57380285D02*
X135143009Y-57427904D01*
X135143009Y-57427904D02*
X135238247Y-57475523D01*
X134566819Y-83192857D02*
X134090628Y-83526190D01*
X134566819Y-83764285D02*
X133566819Y-83764285D01*
X133566819Y-83764285D02*
X133566819Y-83383333D01*
X133566819Y-83383333D02*
X133614438Y-83288095D01*
X133614438Y-83288095D02*
X133662057Y-83240476D01*
X133662057Y-83240476D02*
X133757295Y-83192857D01*
X133757295Y-83192857D02*
X133900152Y-83192857D01*
X133900152Y-83192857D02*
X133995390Y-83240476D01*
X133995390Y-83240476D02*
X134043009Y-83288095D01*
X134043009Y-83288095D02*
X134090628Y-83383333D01*
X134090628Y-83383333D02*
X134090628Y-83764285D01*
X133662057Y-82811904D02*
X133614438Y-82764285D01*
X133614438Y-82764285D02*
X133566819Y-82669047D01*
X133566819Y-82669047D02*
X133566819Y-82430952D01*
X133566819Y-82430952D02*
X133614438Y-82335714D01*
X133614438Y-82335714D02*
X133662057Y-82288095D01*
X133662057Y-82288095D02*
X133757295Y-82240476D01*
X133757295Y-82240476D02*
X133852533Y-82240476D01*
X133852533Y-82240476D02*
X133995390Y-82288095D01*
X133995390Y-82288095D02*
X134566819Y-82859523D01*
X134566819Y-82859523D02*
X134566819Y-82240476D01*
X133566819Y-81621428D02*
X133566819Y-81526190D01*
X133566819Y-81526190D02*
X133614438Y-81430952D01*
X133614438Y-81430952D02*
X133662057Y-81383333D01*
X133662057Y-81383333D02*
X133757295Y-81335714D01*
X133757295Y-81335714D02*
X133947771Y-81288095D01*
X133947771Y-81288095D02*
X134185866Y-81288095D01*
X134185866Y-81288095D02*
X134376342Y-81335714D01*
X134376342Y-81335714D02*
X134471580Y-81383333D01*
X134471580Y-81383333D02*
X134519200Y-81430952D01*
X134519200Y-81430952D02*
X134566819Y-81526190D01*
X134566819Y-81526190D02*
X134566819Y-81621428D01*
X134566819Y-81621428D02*
X134519200Y-81716666D01*
X134519200Y-81716666D02*
X134471580Y-81764285D01*
X134471580Y-81764285D02*
X134376342Y-81811904D01*
X134376342Y-81811904D02*
X134185866Y-81859523D01*
X134185866Y-81859523D02*
X133947771Y-81859523D01*
X133947771Y-81859523D02*
X133757295Y-81811904D01*
X133757295Y-81811904D02*
X133662057Y-81764285D01*
X133662057Y-81764285D02*
X133614438Y-81716666D01*
X133614438Y-81716666D02*
X133566819Y-81621428D01*
X132594819Y-70616904D02*
X133404342Y-70616904D01*
X133404342Y-70616904D02*
X133499580Y-70569285D01*
X133499580Y-70569285D02*
X133547200Y-70521666D01*
X133547200Y-70521666D02*
X133594819Y-70426428D01*
X133594819Y-70426428D02*
X133594819Y-70235952D01*
X133594819Y-70235952D02*
X133547200Y-70140714D01*
X133547200Y-70140714D02*
X133499580Y-70093095D01*
X133499580Y-70093095D02*
X133404342Y-70045476D01*
X133404342Y-70045476D02*
X132594819Y-70045476D01*
X132594819Y-69664523D02*
X132594819Y-69045476D01*
X132594819Y-69045476D02*
X132975771Y-69378809D01*
X132975771Y-69378809D02*
X132975771Y-69235952D01*
X132975771Y-69235952D02*
X133023390Y-69140714D01*
X133023390Y-69140714D02*
X133071009Y-69093095D01*
X133071009Y-69093095D02*
X133166247Y-69045476D01*
X133166247Y-69045476D02*
X133404342Y-69045476D01*
X133404342Y-69045476D02*
X133499580Y-69093095D01*
X133499580Y-69093095D02*
X133547200Y-69140714D01*
X133547200Y-69140714D02*
X133594819Y-69235952D01*
X133594819Y-69235952D02*
X133594819Y-69521666D01*
X133594819Y-69521666D02*
X133547200Y-69616904D01*
X133547200Y-69616904D02*
X133499580Y-69664523D01*
X139562819Y-83954857D02*
X139086628Y-84288190D01*
X139562819Y-84526285D02*
X138562819Y-84526285D01*
X138562819Y-84526285D02*
X138562819Y-84145333D01*
X138562819Y-84145333D02*
X138610438Y-84050095D01*
X138610438Y-84050095D02*
X138658057Y-84002476D01*
X138658057Y-84002476D02*
X138753295Y-83954857D01*
X138753295Y-83954857D02*
X138896152Y-83954857D01*
X138896152Y-83954857D02*
X138991390Y-84002476D01*
X138991390Y-84002476D02*
X139039009Y-84050095D01*
X139039009Y-84050095D02*
X139086628Y-84145333D01*
X139086628Y-84145333D02*
X139086628Y-84526285D01*
X139562819Y-83002476D02*
X139562819Y-83573904D01*
X139562819Y-83288190D02*
X138562819Y-83288190D01*
X138562819Y-83288190D02*
X138705676Y-83383428D01*
X138705676Y-83383428D02*
X138800914Y-83478666D01*
X138800914Y-83478666D02*
X138848533Y-83573904D01*
X139562819Y-82526285D02*
X139562819Y-82335809D01*
X139562819Y-82335809D02*
X139515200Y-82240571D01*
X139515200Y-82240571D02*
X139467580Y-82192952D01*
X139467580Y-82192952D02*
X139324723Y-82097714D01*
X139324723Y-82097714D02*
X139134247Y-82050095D01*
X139134247Y-82050095D02*
X138753295Y-82050095D01*
X138753295Y-82050095D02*
X138658057Y-82097714D01*
X138658057Y-82097714D02*
X138610438Y-82145333D01*
X138610438Y-82145333D02*
X138562819Y-82240571D01*
X138562819Y-82240571D02*
X138562819Y-82431047D01*
X138562819Y-82431047D02*
X138610438Y-82526285D01*
X138610438Y-82526285D02*
X138658057Y-82573904D01*
X138658057Y-82573904D02*
X138753295Y-82621523D01*
X138753295Y-82621523D02*
X138991390Y-82621523D01*
X138991390Y-82621523D02*
X139086628Y-82573904D01*
X139086628Y-82573904D02*
X139134247Y-82526285D01*
X139134247Y-82526285D02*
X139181866Y-82431047D01*
X139181866Y-82431047D02*
X139181866Y-82240571D01*
X139181866Y-82240571D02*
X139134247Y-82145333D01*
X139134247Y-82145333D02*
X139086628Y-82097714D01*
X139086628Y-82097714D02*
X138991390Y-82050095D01*
X144472819Y-83192857D02*
X143996628Y-83526190D01*
X144472819Y-83764285D02*
X143472819Y-83764285D01*
X143472819Y-83764285D02*
X143472819Y-83383333D01*
X143472819Y-83383333D02*
X143520438Y-83288095D01*
X143520438Y-83288095D02*
X143568057Y-83240476D01*
X143568057Y-83240476D02*
X143663295Y-83192857D01*
X143663295Y-83192857D02*
X143806152Y-83192857D01*
X143806152Y-83192857D02*
X143901390Y-83240476D01*
X143901390Y-83240476D02*
X143949009Y-83288095D01*
X143949009Y-83288095D02*
X143996628Y-83383333D01*
X143996628Y-83383333D02*
X143996628Y-83764285D01*
X144472819Y-82240476D02*
X144472819Y-82811904D01*
X144472819Y-82526190D02*
X143472819Y-82526190D01*
X143472819Y-82526190D02*
X143615676Y-82621428D01*
X143615676Y-82621428D02*
X143710914Y-82716666D01*
X143710914Y-82716666D02*
X143758533Y-82811904D01*
X143901390Y-81669047D02*
X143853771Y-81764285D01*
X143853771Y-81764285D02*
X143806152Y-81811904D01*
X143806152Y-81811904D02*
X143710914Y-81859523D01*
X143710914Y-81859523D02*
X143663295Y-81859523D01*
X143663295Y-81859523D02*
X143568057Y-81811904D01*
X143568057Y-81811904D02*
X143520438Y-81764285D01*
X143520438Y-81764285D02*
X143472819Y-81669047D01*
X143472819Y-81669047D02*
X143472819Y-81478571D01*
X143472819Y-81478571D02*
X143520438Y-81383333D01*
X143520438Y-81383333D02*
X143568057Y-81335714D01*
X143568057Y-81335714D02*
X143663295Y-81288095D01*
X143663295Y-81288095D02*
X143710914Y-81288095D01*
X143710914Y-81288095D02*
X143806152Y-81335714D01*
X143806152Y-81335714D02*
X143853771Y-81383333D01*
X143853771Y-81383333D02*
X143901390Y-81478571D01*
X143901390Y-81478571D02*
X143901390Y-81669047D01*
X143901390Y-81669047D02*
X143949009Y-81764285D01*
X143949009Y-81764285D02*
X143996628Y-81811904D01*
X143996628Y-81811904D02*
X144091866Y-81859523D01*
X144091866Y-81859523D02*
X144282342Y-81859523D01*
X144282342Y-81859523D02*
X144377580Y-81811904D01*
X144377580Y-81811904D02*
X144425200Y-81764285D01*
X144425200Y-81764285D02*
X144472819Y-81669047D01*
X144472819Y-81669047D02*
X144472819Y-81478571D01*
X144472819Y-81478571D02*
X144425200Y-81383333D01*
X144425200Y-81383333D02*
X144377580Y-81335714D01*
X144377580Y-81335714D02*
X144282342Y-81288095D01*
X144282342Y-81288095D02*
X144091866Y-81288095D01*
X144091866Y-81288095D02*
X143996628Y-81335714D01*
X143996628Y-81335714D02*
X143949009Y-81383333D01*
X143949009Y-81383333D02*
X143901390Y-81478571D01*
X94152819Y-73151904D02*
X94962342Y-73151904D01*
X94962342Y-73151904D02*
X95057580Y-73104285D01*
X95057580Y-73104285D02*
X95105200Y-73056666D01*
X95105200Y-73056666D02*
X95152819Y-72961428D01*
X95152819Y-72961428D02*
X95152819Y-72770952D01*
X95152819Y-72770952D02*
X95105200Y-72675714D01*
X95105200Y-72675714D02*
X95057580Y-72628095D01*
X95057580Y-72628095D02*
X94962342Y-72580476D01*
X94962342Y-72580476D02*
X94152819Y-72580476D01*
X94248057Y-72151904D02*
X94200438Y-72104285D01*
X94200438Y-72104285D02*
X94152819Y-72009047D01*
X94152819Y-72009047D02*
X94152819Y-71770952D01*
X94152819Y-71770952D02*
X94200438Y-71675714D01*
X94200438Y-71675714D02*
X94248057Y-71628095D01*
X94248057Y-71628095D02*
X94343295Y-71580476D01*
X94343295Y-71580476D02*
X94438533Y-71580476D01*
X94438533Y-71580476D02*
X94581390Y-71628095D01*
X94581390Y-71628095D02*
X95152819Y-72199523D01*
X95152819Y-72199523D02*
X95152819Y-71580476D01*
X111536819Y-78112857D02*
X111060628Y-78446190D01*
X111536819Y-78684285D02*
X110536819Y-78684285D01*
X110536819Y-78684285D02*
X110536819Y-78303333D01*
X110536819Y-78303333D02*
X110584438Y-78208095D01*
X110584438Y-78208095D02*
X110632057Y-78160476D01*
X110632057Y-78160476D02*
X110727295Y-78112857D01*
X110727295Y-78112857D02*
X110870152Y-78112857D01*
X110870152Y-78112857D02*
X110965390Y-78160476D01*
X110965390Y-78160476D02*
X111013009Y-78208095D01*
X111013009Y-78208095D02*
X111060628Y-78303333D01*
X111060628Y-78303333D02*
X111060628Y-78684285D01*
X111536819Y-77160476D02*
X111536819Y-77731904D01*
X111536819Y-77446190D02*
X110536819Y-77446190D01*
X110536819Y-77446190D02*
X110679676Y-77541428D01*
X110679676Y-77541428D02*
X110774914Y-77636666D01*
X110774914Y-77636666D02*
X110822533Y-77731904D01*
X111536819Y-76208095D02*
X111536819Y-76779523D01*
X111536819Y-76493809D02*
X110536819Y-76493809D01*
X110536819Y-76493809D02*
X110679676Y-76589047D01*
X110679676Y-76589047D02*
X110774914Y-76684285D01*
X110774914Y-76684285D02*
X110822533Y-76779523D01*
X122374819Y-82430857D02*
X121898628Y-82764190D01*
X122374819Y-83002285D02*
X121374819Y-83002285D01*
X121374819Y-83002285D02*
X121374819Y-82621333D01*
X121374819Y-82621333D02*
X121422438Y-82526095D01*
X121422438Y-82526095D02*
X121470057Y-82478476D01*
X121470057Y-82478476D02*
X121565295Y-82430857D01*
X121565295Y-82430857D02*
X121708152Y-82430857D01*
X121708152Y-82430857D02*
X121803390Y-82478476D01*
X121803390Y-82478476D02*
X121851009Y-82526095D01*
X121851009Y-82526095D02*
X121898628Y-82621333D01*
X121898628Y-82621333D02*
X121898628Y-83002285D01*
X122374819Y-81478476D02*
X122374819Y-82049904D01*
X122374819Y-81764190D02*
X121374819Y-81764190D01*
X121374819Y-81764190D02*
X121517676Y-81859428D01*
X121517676Y-81859428D02*
X121612914Y-81954666D01*
X121612914Y-81954666D02*
X121660533Y-82049904D01*
X121470057Y-81097523D02*
X121422438Y-81049904D01*
X121422438Y-81049904D02*
X121374819Y-80954666D01*
X121374819Y-80954666D02*
X121374819Y-80716571D01*
X121374819Y-80716571D02*
X121422438Y-80621333D01*
X121422438Y-80621333D02*
X121470057Y-80573714D01*
X121470057Y-80573714D02*
X121565295Y-80526095D01*
X121565295Y-80526095D02*
X121660533Y-80526095D01*
X121660533Y-80526095D02*
X121803390Y-80573714D01*
X121803390Y-80573714D02*
X122374819Y-81145142D01*
X122374819Y-81145142D02*
X122374819Y-80526095D01*
X94575333Y-65986819D02*
X94242000Y-65510628D01*
X94003905Y-65986819D02*
X94003905Y-64986819D01*
X94003905Y-64986819D02*
X94384857Y-64986819D01*
X94384857Y-64986819D02*
X94480095Y-65034438D01*
X94480095Y-65034438D02*
X94527714Y-65082057D01*
X94527714Y-65082057D02*
X94575333Y-65177295D01*
X94575333Y-65177295D02*
X94575333Y-65320152D01*
X94575333Y-65320152D02*
X94527714Y-65415390D01*
X94527714Y-65415390D02*
X94480095Y-65463009D01*
X94480095Y-65463009D02*
X94384857Y-65510628D01*
X94384857Y-65510628D02*
X94003905Y-65510628D01*
X95146762Y-65415390D02*
X95051524Y-65367771D01*
X95051524Y-65367771D02*
X95003905Y-65320152D01*
X95003905Y-65320152D02*
X94956286Y-65224914D01*
X94956286Y-65224914D02*
X94956286Y-65177295D01*
X94956286Y-65177295D02*
X95003905Y-65082057D01*
X95003905Y-65082057D02*
X95051524Y-65034438D01*
X95051524Y-65034438D02*
X95146762Y-64986819D01*
X95146762Y-64986819D02*
X95337238Y-64986819D01*
X95337238Y-64986819D02*
X95432476Y-65034438D01*
X95432476Y-65034438D02*
X95480095Y-65082057D01*
X95480095Y-65082057D02*
X95527714Y-65177295D01*
X95527714Y-65177295D02*
X95527714Y-65224914D01*
X95527714Y-65224914D02*
X95480095Y-65320152D01*
X95480095Y-65320152D02*
X95432476Y-65367771D01*
X95432476Y-65367771D02*
X95337238Y-65415390D01*
X95337238Y-65415390D02*
X95146762Y-65415390D01*
X95146762Y-65415390D02*
X95051524Y-65463009D01*
X95051524Y-65463009D02*
X95003905Y-65510628D01*
X95003905Y-65510628D02*
X94956286Y-65605866D01*
X94956286Y-65605866D02*
X94956286Y-65796342D01*
X94956286Y-65796342D02*
X95003905Y-65891580D01*
X95003905Y-65891580D02*
X95051524Y-65939200D01*
X95051524Y-65939200D02*
X95146762Y-65986819D01*
X95146762Y-65986819D02*
X95337238Y-65986819D01*
X95337238Y-65986819D02*
X95432476Y-65939200D01*
X95432476Y-65939200D02*
X95480095Y-65891580D01*
X95480095Y-65891580D02*
X95527714Y-65796342D01*
X95527714Y-65796342D02*
X95527714Y-65605866D01*
X95527714Y-65605866D02*
X95480095Y-65510628D01*
X95480095Y-65510628D02*
X95432476Y-65463009D01*
X95432476Y-65463009D02*
X95337238Y-65415390D01*
X121245333Y-64581580D02*
X121197714Y-64629200D01*
X121197714Y-64629200D02*
X121054857Y-64676819D01*
X121054857Y-64676819D02*
X120959619Y-64676819D01*
X120959619Y-64676819D02*
X120816762Y-64629200D01*
X120816762Y-64629200D02*
X120721524Y-64533961D01*
X120721524Y-64533961D02*
X120673905Y-64438723D01*
X120673905Y-64438723D02*
X120626286Y-64248247D01*
X120626286Y-64248247D02*
X120626286Y-64105390D01*
X120626286Y-64105390D02*
X120673905Y-63914914D01*
X120673905Y-63914914D02*
X120721524Y-63819676D01*
X120721524Y-63819676D02*
X120816762Y-63724438D01*
X120816762Y-63724438D02*
X120959619Y-63676819D01*
X120959619Y-63676819D02*
X121054857Y-63676819D01*
X121054857Y-63676819D02*
X121197714Y-63724438D01*
X121197714Y-63724438D02*
X121245333Y-63772057D01*
X121578667Y-63676819D02*
X122245333Y-63676819D01*
X122245333Y-63676819D02*
X121816762Y-64676819D01*
X121358819Y-70492857D02*
X120882628Y-70826190D01*
X121358819Y-71064285D02*
X120358819Y-71064285D01*
X120358819Y-71064285D02*
X120358819Y-70683333D01*
X120358819Y-70683333D02*
X120406438Y-70588095D01*
X120406438Y-70588095D02*
X120454057Y-70540476D01*
X120454057Y-70540476D02*
X120549295Y-70492857D01*
X120549295Y-70492857D02*
X120692152Y-70492857D01*
X120692152Y-70492857D02*
X120787390Y-70540476D01*
X120787390Y-70540476D02*
X120835009Y-70588095D01*
X120835009Y-70588095D02*
X120882628Y-70683333D01*
X120882628Y-70683333D02*
X120882628Y-71064285D01*
X121358819Y-69540476D02*
X121358819Y-70111904D01*
X121358819Y-69826190D02*
X120358819Y-69826190D01*
X120358819Y-69826190D02*
X120501676Y-69921428D01*
X120501676Y-69921428D02*
X120596914Y-70016666D01*
X120596914Y-70016666D02*
X120644533Y-70111904D01*
X120358819Y-69207142D02*
X120358819Y-68588095D01*
X120358819Y-68588095D02*
X120739771Y-68921428D01*
X120739771Y-68921428D02*
X120739771Y-68778571D01*
X120739771Y-68778571D02*
X120787390Y-68683333D01*
X120787390Y-68683333D02*
X120835009Y-68635714D01*
X120835009Y-68635714D02*
X120930247Y-68588095D01*
X120930247Y-68588095D02*
X121168342Y-68588095D01*
X121168342Y-68588095D02*
X121263580Y-68635714D01*
X121263580Y-68635714D02*
X121311200Y-68683333D01*
X121311200Y-68683333D02*
X121358819Y-68778571D01*
X121358819Y-68778571D02*
X121358819Y-69064285D01*
X121358819Y-69064285D02*
X121311200Y-69159523D01*
X121311200Y-69159523D02*
X121263580Y-69207142D01*
X148960819Y-74048857D02*
X148484628Y-74382190D01*
X148960819Y-74620285D02*
X147960819Y-74620285D01*
X147960819Y-74620285D02*
X147960819Y-74239333D01*
X147960819Y-74239333D02*
X148008438Y-74144095D01*
X148008438Y-74144095D02*
X148056057Y-74096476D01*
X148056057Y-74096476D02*
X148151295Y-74048857D01*
X148151295Y-74048857D02*
X148294152Y-74048857D01*
X148294152Y-74048857D02*
X148389390Y-74096476D01*
X148389390Y-74096476D02*
X148437009Y-74144095D01*
X148437009Y-74144095D02*
X148484628Y-74239333D01*
X148484628Y-74239333D02*
X148484628Y-74620285D01*
X148056057Y-73667904D02*
X148008438Y-73620285D01*
X148008438Y-73620285D02*
X147960819Y-73525047D01*
X147960819Y-73525047D02*
X147960819Y-73286952D01*
X147960819Y-73286952D02*
X148008438Y-73191714D01*
X148008438Y-73191714D02*
X148056057Y-73144095D01*
X148056057Y-73144095D02*
X148151295Y-73096476D01*
X148151295Y-73096476D02*
X148246533Y-73096476D01*
X148246533Y-73096476D02*
X148389390Y-73144095D01*
X148389390Y-73144095D02*
X148960819Y-73715523D01*
X148960819Y-73715523D02*
X148960819Y-73096476D01*
X148960819Y-72144095D02*
X148960819Y-72715523D01*
X148960819Y-72429809D02*
X147960819Y-72429809D01*
X147960819Y-72429809D02*
X148103676Y-72525047D01*
X148103676Y-72525047D02*
X148198914Y-72620285D01*
X148198914Y-72620285D02*
X148246533Y-72715523D01*
X102308819Y-58078666D02*
X101832628Y-58411999D01*
X102308819Y-58650094D02*
X101308819Y-58650094D01*
X101308819Y-58650094D02*
X101308819Y-58269142D01*
X101308819Y-58269142D02*
X101356438Y-58173904D01*
X101356438Y-58173904D02*
X101404057Y-58126285D01*
X101404057Y-58126285D02*
X101499295Y-58078666D01*
X101499295Y-58078666D02*
X101642152Y-58078666D01*
X101642152Y-58078666D02*
X101737390Y-58126285D01*
X101737390Y-58126285D02*
X101785009Y-58173904D01*
X101785009Y-58173904D02*
X101832628Y-58269142D01*
X101832628Y-58269142D02*
X101832628Y-58650094D01*
X102308819Y-57602475D02*
X102308819Y-57411999D01*
X102308819Y-57411999D02*
X102261200Y-57316761D01*
X102261200Y-57316761D02*
X102213580Y-57269142D01*
X102213580Y-57269142D02*
X102070723Y-57173904D01*
X102070723Y-57173904D02*
X101880247Y-57126285D01*
X101880247Y-57126285D02*
X101499295Y-57126285D01*
X101499295Y-57126285D02*
X101404057Y-57173904D01*
X101404057Y-57173904D02*
X101356438Y-57221523D01*
X101356438Y-57221523D02*
X101308819Y-57316761D01*
X101308819Y-57316761D02*
X101308819Y-57507237D01*
X101308819Y-57507237D02*
X101356438Y-57602475D01*
X101356438Y-57602475D02*
X101404057Y-57650094D01*
X101404057Y-57650094D02*
X101499295Y-57697713D01*
X101499295Y-57697713D02*
X101737390Y-57697713D01*
X101737390Y-57697713D02*
X101832628Y-57650094D01*
X101832628Y-57650094D02*
X101880247Y-57602475D01*
X101880247Y-57602475D02*
X101927866Y-57507237D01*
X101927866Y-57507237D02*
X101927866Y-57316761D01*
X101927866Y-57316761D02*
X101880247Y-57221523D01*
X101880247Y-57221523D02*
X101832628Y-57173904D01*
X101832628Y-57173904D02*
X101737390Y-57126285D01*
X144339333Y-54969580D02*
X144291714Y-55017200D01*
X144291714Y-55017200D02*
X144148857Y-55064819D01*
X144148857Y-55064819D02*
X144053619Y-55064819D01*
X144053619Y-55064819D02*
X143910762Y-55017200D01*
X143910762Y-55017200D02*
X143815524Y-54921961D01*
X143815524Y-54921961D02*
X143767905Y-54826723D01*
X143767905Y-54826723D02*
X143720286Y-54636247D01*
X143720286Y-54636247D02*
X143720286Y-54493390D01*
X143720286Y-54493390D02*
X143767905Y-54302914D01*
X143767905Y-54302914D02*
X143815524Y-54207676D01*
X143815524Y-54207676D02*
X143910762Y-54112438D01*
X143910762Y-54112438D02*
X144053619Y-54064819D01*
X144053619Y-54064819D02*
X144148857Y-54064819D01*
X144148857Y-54064819D02*
X144291714Y-54112438D01*
X144291714Y-54112438D02*
X144339333Y-54160057D01*
X144910762Y-54493390D02*
X144815524Y-54445771D01*
X144815524Y-54445771D02*
X144767905Y-54398152D01*
X144767905Y-54398152D02*
X144720286Y-54302914D01*
X144720286Y-54302914D02*
X144720286Y-54255295D01*
X144720286Y-54255295D02*
X144767905Y-54160057D01*
X144767905Y-54160057D02*
X144815524Y-54112438D01*
X144815524Y-54112438D02*
X144910762Y-54064819D01*
X144910762Y-54064819D02*
X145101238Y-54064819D01*
X145101238Y-54064819D02*
X145196476Y-54112438D01*
X145196476Y-54112438D02*
X145244095Y-54160057D01*
X145244095Y-54160057D02*
X145291714Y-54255295D01*
X145291714Y-54255295D02*
X145291714Y-54302914D01*
X145291714Y-54302914D02*
X145244095Y-54398152D01*
X145244095Y-54398152D02*
X145196476Y-54445771D01*
X145196476Y-54445771D02*
X145101238Y-54493390D01*
X145101238Y-54493390D02*
X144910762Y-54493390D01*
X144910762Y-54493390D02*
X144815524Y-54541009D01*
X144815524Y-54541009D02*
X144767905Y-54588628D01*
X144767905Y-54588628D02*
X144720286Y-54683866D01*
X144720286Y-54683866D02*
X144720286Y-54874342D01*
X144720286Y-54874342D02*
X144767905Y-54969580D01*
X144767905Y-54969580D02*
X144815524Y-55017200D01*
X144815524Y-55017200D02*
X144910762Y-55064819D01*
X144910762Y-55064819D02*
X145101238Y-55064819D01*
X145101238Y-55064819D02*
X145196476Y-55017200D01*
X145196476Y-55017200D02*
X145244095Y-54969580D01*
X145244095Y-54969580D02*
X145291714Y-54874342D01*
X145291714Y-54874342D02*
X145291714Y-54683866D01*
X145291714Y-54683866D02*
X145244095Y-54588628D01*
X145244095Y-54588628D02*
X145196476Y-54541009D01*
X145196476Y-54541009D02*
X145101238Y-54493390D01*
X150034666Y-78857819D02*
X150034666Y-79572104D01*
X150034666Y-79572104D02*
X149987047Y-79714961D01*
X149987047Y-79714961D02*
X149891809Y-79810200D01*
X149891809Y-79810200D02*
X149748952Y-79857819D01*
X149748952Y-79857819D02*
X149653714Y-79857819D01*
X150939428Y-79191152D02*
X150939428Y-79857819D01*
X150701333Y-78810200D02*
X150463238Y-79524485D01*
X150463238Y-79524485D02*
X151082285Y-79524485D01*
X133709580Y-78144666D02*
X133757200Y-78192285D01*
X133757200Y-78192285D02*
X133804819Y-78335142D01*
X133804819Y-78335142D02*
X133804819Y-78430380D01*
X133804819Y-78430380D02*
X133757200Y-78573237D01*
X133757200Y-78573237D02*
X133661961Y-78668475D01*
X133661961Y-78668475D02*
X133566723Y-78716094D01*
X133566723Y-78716094D02*
X133376247Y-78763713D01*
X133376247Y-78763713D02*
X133233390Y-78763713D01*
X133233390Y-78763713D02*
X133042914Y-78716094D01*
X133042914Y-78716094D02*
X132947676Y-78668475D01*
X132947676Y-78668475D02*
X132852438Y-78573237D01*
X132852438Y-78573237D02*
X132804819Y-78430380D01*
X132804819Y-78430380D02*
X132804819Y-78335142D01*
X132804819Y-78335142D02*
X132852438Y-78192285D01*
X132852438Y-78192285D02*
X132900057Y-78144666D01*
X132804819Y-77811332D02*
X132804819Y-77192285D01*
X132804819Y-77192285D02*
X133185771Y-77525618D01*
X133185771Y-77525618D02*
X133185771Y-77382761D01*
X133185771Y-77382761D02*
X133233390Y-77287523D01*
X133233390Y-77287523D02*
X133281009Y-77239904D01*
X133281009Y-77239904D02*
X133376247Y-77192285D01*
X133376247Y-77192285D02*
X133614342Y-77192285D01*
X133614342Y-77192285D02*
X133709580Y-77239904D01*
X133709580Y-77239904D02*
X133757200Y-77287523D01*
X133757200Y-77287523D02*
X133804819Y-77382761D01*
X133804819Y-77382761D02*
X133804819Y-77668475D01*
X133804819Y-77668475D02*
X133757200Y-77763713D01*
X133757200Y-77763713D02*
X133709580Y-77811332D01*
X146169142Y-59128819D02*
X145835809Y-58652628D01*
X145597714Y-59128819D02*
X145597714Y-58128819D01*
X145597714Y-58128819D02*
X145978666Y-58128819D01*
X145978666Y-58128819D02*
X146073904Y-58176438D01*
X146073904Y-58176438D02*
X146121523Y-58224057D01*
X146121523Y-58224057D02*
X146169142Y-58319295D01*
X146169142Y-58319295D02*
X146169142Y-58462152D01*
X146169142Y-58462152D02*
X146121523Y-58557390D01*
X146121523Y-58557390D02*
X146073904Y-58605009D01*
X146073904Y-58605009D02*
X145978666Y-58652628D01*
X145978666Y-58652628D02*
X145597714Y-58652628D01*
X146550095Y-58224057D02*
X146597714Y-58176438D01*
X146597714Y-58176438D02*
X146692952Y-58128819D01*
X146692952Y-58128819D02*
X146931047Y-58128819D01*
X146931047Y-58128819D02*
X147026285Y-58176438D01*
X147026285Y-58176438D02*
X147073904Y-58224057D01*
X147073904Y-58224057D02*
X147121523Y-58319295D01*
X147121523Y-58319295D02*
X147121523Y-58414533D01*
X147121523Y-58414533D02*
X147073904Y-58557390D01*
X147073904Y-58557390D02*
X146502476Y-59128819D01*
X146502476Y-59128819D02*
X147121523Y-59128819D01*
X147454857Y-58128819D02*
X148073904Y-58128819D01*
X148073904Y-58128819D02*
X147740571Y-58509771D01*
X147740571Y-58509771D02*
X147883428Y-58509771D01*
X147883428Y-58509771D02*
X147978666Y-58557390D01*
X147978666Y-58557390D02*
X148026285Y-58605009D01*
X148026285Y-58605009D02*
X148073904Y-58700247D01*
X148073904Y-58700247D02*
X148073904Y-58938342D01*
X148073904Y-58938342D02*
X148026285Y-59033580D01*
X148026285Y-59033580D02*
X147978666Y-59081200D01*
X147978666Y-59081200D02*
X147883428Y-59128819D01*
X147883428Y-59128819D02*
X147597714Y-59128819D01*
X147597714Y-59128819D02*
X147502476Y-59081200D01*
X147502476Y-59081200D02*
X147454857Y-59033580D01*
X110849580Y-70016666D02*
X110897200Y-70064285D01*
X110897200Y-70064285D02*
X110944819Y-70207142D01*
X110944819Y-70207142D02*
X110944819Y-70302380D01*
X110944819Y-70302380D02*
X110897200Y-70445237D01*
X110897200Y-70445237D02*
X110801961Y-70540475D01*
X110801961Y-70540475D02*
X110706723Y-70588094D01*
X110706723Y-70588094D02*
X110516247Y-70635713D01*
X110516247Y-70635713D02*
X110373390Y-70635713D01*
X110373390Y-70635713D02*
X110182914Y-70588094D01*
X110182914Y-70588094D02*
X110087676Y-70540475D01*
X110087676Y-70540475D02*
X109992438Y-70445237D01*
X109992438Y-70445237D02*
X109944819Y-70302380D01*
X109944819Y-70302380D02*
X109944819Y-70207142D01*
X109944819Y-70207142D02*
X109992438Y-70064285D01*
X109992438Y-70064285D02*
X110040057Y-70016666D01*
X110040057Y-69635713D02*
X109992438Y-69588094D01*
X109992438Y-69588094D02*
X109944819Y-69492856D01*
X109944819Y-69492856D02*
X109944819Y-69254761D01*
X109944819Y-69254761D02*
X109992438Y-69159523D01*
X109992438Y-69159523D02*
X110040057Y-69111904D01*
X110040057Y-69111904D02*
X110135295Y-69064285D01*
X110135295Y-69064285D02*
X110230533Y-69064285D01*
X110230533Y-69064285D02*
X110373390Y-69111904D01*
X110373390Y-69111904D02*
X110944819Y-69683332D01*
X110944819Y-69683332D02*
X110944819Y-69064285D01*
X114895333Y-86973580D02*
X114847714Y-87021200D01*
X114847714Y-87021200D02*
X114704857Y-87068819D01*
X114704857Y-87068819D02*
X114609619Y-87068819D01*
X114609619Y-87068819D02*
X114466762Y-87021200D01*
X114466762Y-87021200D02*
X114371524Y-86925961D01*
X114371524Y-86925961D02*
X114323905Y-86830723D01*
X114323905Y-86830723D02*
X114276286Y-86640247D01*
X114276286Y-86640247D02*
X114276286Y-86497390D01*
X114276286Y-86497390D02*
X114323905Y-86306914D01*
X114323905Y-86306914D02*
X114371524Y-86211676D01*
X114371524Y-86211676D02*
X114466762Y-86116438D01*
X114466762Y-86116438D02*
X114609619Y-86068819D01*
X114609619Y-86068819D02*
X114704857Y-86068819D01*
X114704857Y-86068819D02*
X114847714Y-86116438D01*
X114847714Y-86116438D02*
X114895333Y-86164057D01*
X115752476Y-86068819D02*
X115562000Y-86068819D01*
X115562000Y-86068819D02*
X115466762Y-86116438D01*
X115466762Y-86116438D02*
X115419143Y-86164057D01*
X115419143Y-86164057D02*
X115323905Y-86306914D01*
X115323905Y-86306914D02*
X115276286Y-86497390D01*
X115276286Y-86497390D02*
X115276286Y-86878342D01*
X115276286Y-86878342D02*
X115323905Y-86973580D01*
X115323905Y-86973580D02*
X115371524Y-87021200D01*
X115371524Y-87021200D02*
X115466762Y-87068819D01*
X115466762Y-87068819D02*
X115657238Y-87068819D01*
X115657238Y-87068819D02*
X115752476Y-87021200D01*
X115752476Y-87021200D02*
X115800095Y-86973580D01*
X115800095Y-86973580D02*
X115847714Y-86878342D01*
X115847714Y-86878342D02*
X115847714Y-86640247D01*
X115847714Y-86640247D02*
X115800095Y-86545009D01*
X115800095Y-86545009D02*
X115752476Y-86497390D01*
X115752476Y-86497390D02*
X115657238Y-86449771D01*
X115657238Y-86449771D02*
X115466762Y-86449771D01*
X115466762Y-86449771D02*
X115371524Y-86497390D01*
X115371524Y-86497390D02*
X115323905Y-86545009D01*
X115323905Y-86545009D02*
X115276286Y-86640247D01*
X115167580Y-70016666D02*
X115215200Y-70064285D01*
X115215200Y-70064285D02*
X115262819Y-70207142D01*
X115262819Y-70207142D02*
X115262819Y-70302380D01*
X115262819Y-70302380D02*
X115215200Y-70445237D01*
X115215200Y-70445237D02*
X115119961Y-70540475D01*
X115119961Y-70540475D02*
X115024723Y-70588094D01*
X115024723Y-70588094D02*
X114834247Y-70635713D01*
X114834247Y-70635713D02*
X114691390Y-70635713D01*
X114691390Y-70635713D02*
X114500914Y-70588094D01*
X114500914Y-70588094D02*
X114405676Y-70540475D01*
X114405676Y-70540475D02*
X114310438Y-70445237D01*
X114310438Y-70445237D02*
X114262819Y-70302380D01*
X114262819Y-70302380D02*
X114262819Y-70207142D01*
X114262819Y-70207142D02*
X114310438Y-70064285D01*
X114310438Y-70064285D02*
X114358057Y-70016666D01*
X114262819Y-69111904D02*
X114262819Y-69588094D01*
X114262819Y-69588094D02*
X114739009Y-69635713D01*
X114739009Y-69635713D02*
X114691390Y-69588094D01*
X114691390Y-69588094D02*
X114643771Y-69492856D01*
X114643771Y-69492856D02*
X114643771Y-69254761D01*
X114643771Y-69254761D02*
X114691390Y-69159523D01*
X114691390Y-69159523D02*
X114739009Y-69111904D01*
X114739009Y-69111904D02*
X114834247Y-69064285D01*
X114834247Y-69064285D02*
X115072342Y-69064285D01*
X115072342Y-69064285D02*
X115167580Y-69111904D01*
X115167580Y-69111904D02*
X115215200Y-69159523D01*
X115215200Y-69159523D02*
X115262819Y-69254761D01*
X115262819Y-69254761D02*
X115262819Y-69492856D01*
X115262819Y-69492856D02*
X115215200Y-69588094D01*
X115215200Y-69588094D02*
X115167580Y-69635713D01*
X125592819Y-81160857D02*
X125116628Y-81494190D01*
X125592819Y-81732285D02*
X124592819Y-81732285D01*
X124592819Y-81732285D02*
X124592819Y-81351333D01*
X124592819Y-81351333D02*
X124640438Y-81256095D01*
X124640438Y-81256095D02*
X124688057Y-81208476D01*
X124688057Y-81208476D02*
X124783295Y-81160857D01*
X124783295Y-81160857D02*
X124926152Y-81160857D01*
X124926152Y-81160857D02*
X125021390Y-81208476D01*
X125021390Y-81208476D02*
X125069009Y-81256095D01*
X125069009Y-81256095D02*
X125116628Y-81351333D01*
X125116628Y-81351333D02*
X125116628Y-81732285D01*
X124688057Y-80779904D02*
X124640438Y-80732285D01*
X124640438Y-80732285D02*
X124592819Y-80637047D01*
X124592819Y-80637047D02*
X124592819Y-80398952D01*
X124592819Y-80398952D02*
X124640438Y-80303714D01*
X124640438Y-80303714D02*
X124688057Y-80256095D01*
X124688057Y-80256095D02*
X124783295Y-80208476D01*
X124783295Y-80208476D02*
X124878533Y-80208476D01*
X124878533Y-80208476D02*
X125021390Y-80256095D01*
X125021390Y-80256095D02*
X125592819Y-80827523D01*
X125592819Y-80827523D02*
X125592819Y-80208476D01*
X124926152Y-79351333D02*
X125592819Y-79351333D01*
X124545200Y-79589428D02*
X125259485Y-79827523D01*
X125259485Y-79827523D02*
X125259485Y-79208476D01*
X109844819Y-58554857D02*
X109368628Y-58888190D01*
X109844819Y-59126285D02*
X108844819Y-59126285D01*
X108844819Y-59126285D02*
X108844819Y-58745333D01*
X108844819Y-58745333D02*
X108892438Y-58650095D01*
X108892438Y-58650095D02*
X108940057Y-58602476D01*
X108940057Y-58602476D02*
X109035295Y-58554857D01*
X109035295Y-58554857D02*
X109178152Y-58554857D01*
X109178152Y-58554857D02*
X109273390Y-58602476D01*
X109273390Y-58602476D02*
X109321009Y-58650095D01*
X109321009Y-58650095D02*
X109368628Y-58745333D01*
X109368628Y-58745333D02*
X109368628Y-59126285D01*
X109844819Y-57602476D02*
X109844819Y-58173904D01*
X109844819Y-57888190D02*
X108844819Y-57888190D01*
X108844819Y-57888190D02*
X108987676Y-57983428D01*
X108987676Y-57983428D02*
X109082914Y-58078666D01*
X109082914Y-58078666D02*
X109130533Y-58173904D01*
X108844819Y-57269142D02*
X108844819Y-56602476D01*
X108844819Y-56602476D02*
X109844819Y-57031047D01*
X116024819Y-77604857D02*
X115548628Y-77938190D01*
X116024819Y-78176285D02*
X115024819Y-78176285D01*
X115024819Y-78176285D02*
X115024819Y-77795333D01*
X115024819Y-77795333D02*
X115072438Y-77700095D01*
X115072438Y-77700095D02*
X115120057Y-77652476D01*
X115120057Y-77652476D02*
X115215295Y-77604857D01*
X115215295Y-77604857D02*
X115358152Y-77604857D01*
X115358152Y-77604857D02*
X115453390Y-77652476D01*
X115453390Y-77652476D02*
X115501009Y-77700095D01*
X115501009Y-77700095D02*
X115548628Y-77795333D01*
X115548628Y-77795333D02*
X115548628Y-78176285D01*
X116024819Y-76652476D02*
X116024819Y-77223904D01*
X116024819Y-76938190D02*
X115024819Y-76938190D01*
X115024819Y-76938190D02*
X115167676Y-77033428D01*
X115167676Y-77033428D02*
X115262914Y-77128666D01*
X115262914Y-77128666D02*
X115310533Y-77223904D01*
X115024819Y-76033428D02*
X115024819Y-75938190D01*
X115024819Y-75938190D02*
X115072438Y-75842952D01*
X115072438Y-75842952D02*
X115120057Y-75795333D01*
X115120057Y-75795333D02*
X115215295Y-75747714D01*
X115215295Y-75747714D02*
X115405771Y-75700095D01*
X115405771Y-75700095D02*
X115643866Y-75700095D01*
X115643866Y-75700095D02*
X115834342Y-75747714D01*
X115834342Y-75747714D02*
X115929580Y-75795333D01*
X115929580Y-75795333D02*
X115977200Y-75842952D01*
X115977200Y-75842952D02*
X116024819Y-75938190D01*
X116024819Y-75938190D02*
X116024819Y-76033428D01*
X116024819Y-76033428D02*
X115977200Y-76128666D01*
X115977200Y-76128666D02*
X115929580Y-76176285D01*
X115929580Y-76176285D02*
X115834342Y-76223904D01*
X115834342Y-76223904D02*
X115643866Y-76271523D01*
X115643866Y-76271523D02*
X115405771Y-76271523D01*
X115405771Y-76271523D02*
X115215295Y-76223904D01*
X115215295Y-76223904D02*
X115120057Y-76176285D01*
X115120057Y-76176285D02*
X115072438Y-76128666D01*
X115072438Y-76128666D02*
X115024819Y-76033428D01*
X98234666Y-81394819D02*
X97901333Y-80918628D01*
X97663238Y-81394819D02*
X97663238Y-80394819D01*
X97663238Y-80394819D02*
X98044190Y-80394819D01*
X98044190Y-80394819D02*
X98139428Y-80442438D01*
X98139428Y-80442438D02*
X98187047Y-80490057D01*
X98187047Y-80490057D02*
X98234666Y-80585295D01*
X98234666Y-80585295D02*
X98234666Y-80728152D01*
X98234666Y-80728152D02*
X98187047Y-80823390D01*
X98187047Y-80823390D02*
X98139428Y-80871009D01*
X98139428Y-80871009D02*
X98044190Y-80918628D01*
X98044190Y-80918628D02*
X97663238Y-80918628D01*
X98663238Y-80871009D02*
X98996571Y-80871009D01*
X99139428Y-81394819D02*
X98663238Y-81394819D01*
X98663238Y-81394819D02*
X98663238Y-80394819D01*
X98663238Y-80394819D02*
X99139428Y-80394819D01*
X99901333Y-80871009D02*
X99568000Y-80871009D01*
X99568000Y-81394819D02*
X99568000Y-80394819D01*
X99568000Y-80394819D02*
X100044190Y-80394819D01*
X100568000Y-80394819D02*
X100568000Y-80632914D01*
X100329905Y-80537676D02*
X100568000Y-80632914D01*
X100568000Y-80632914D02*
X100806095Y-80537676D01*
X100425143Y-80823390D02*
X100568000Y-80632914D01*
X100568000Y-80632914D02*
X100710857Y-80823390D01*
X101329905Y-80394819D02*
X101329905Y-80632914D01*
X101091810Y-80537676D02*
X101329905Y-80632914D01*
X101329905Y-80632914D02*
X101568000Y-80537676D01*
X101187048Y-80823390D02*
X101329905Y-80632914D01*
X101329905Y-80632914D02*
X101472762Y-80823390D01*
%TO.C,J1*%
D11*
X136796000Y-59944000D02*
X136796000Y-52214000D01*
X139556000Y-52214000D02*
X136796000Y-52214000D01*
X139556000Y-59944000D02*
X136796000Y-59944000D01*
X139556000Y-59944000D02*
X139556000Y-52214000D01*
X139556000Y-61214000D02*
X139556000Y-62594000D01*
X139556000Y-62594000D02*
X138176000Y-62594000D01*
%TO.C,R14*%
X116618000Y-54764000D02*
X116618000Y-55094000D01*
X116618000Y-57504000D02*
X116618000Y-57174000D01*
X123158000Y-54764000D02*
X116618000Y-54764000D01*
X123158000Y-55094000D02*
X123158000Y-54764000D01*
X123158000Y-57174000D02*
X123158000Y-57504000D01*
X123158000Y-57504000D02*
X116618000Y-57504000D01*
%TO.C,U4*%
X136592000Y-70497000D02*
X136592000Y-72147000D01*
X136592000Y-74147000D02*
X136592000Y-75797000D01*
X136592000Y-75797000D02*
X146872000Y-75797000D01*
X146872000Y-70497000D02*
X136592000Y-70497000D01*
X146872000Y-75797000D02*
X146872000Y-70497000D01*
X136592000Y-72147000D02*
G75*
G02*
X136592000Y-74147000I0J-1000000D01*
G01*
%TO.C,R22*%
X143542000Y-65178000D02*
X150082000Y-65178000D01*
X143542000Y-65508000D02*
X143542000Y-65178000D01*
X143542000Y-67588000D02*
X143542000Y-67918000D01*
X143542000Y-67918000D02*
X150082000Y-67918000D01*
X150082000Y-65178000D02*
X150082000Y-65508000D01*
X150082000Y-67918000D02*
X150082000Y-67588000D01*
%TO.C,J3*%
X108602000Y-63898000D02*
X108602000Y-66658000D01*
X111252000Y-63898000D02*
X108602000Y-63898000D01*
X111252000Y-63898000D02*
X111252000Y-66658000D01*
X111252000Y-66658000D02*
X108602000Y-66658000D01*
X112522000Y-63898000D02*
X113902000Y-63898000D01*
X113902000Y-63898000D02*
X113902000Y-65278000D01*
%TO.C,D1*%
X139954000Y-65319944D02*
X139954000Y-65206315D01*
X141280371Y-66646315D02*
G75*
G02*
X138627629Y-66646315I-1326371J0D01*
G01*
X138627629Y-66646315D02*
G75*
G02*
X141280371Y-66646315I1326371J0D01*
G01*
%TO.C,R15*%
X126392000Y-54896000D02*
X126392000Y-61436000D01*
X126392000Y-61436000D02*
X126722000Y-61436000D01*
X126722000Y-54896000D02*
X126392000Y-54896000D01*
X128802000Y-54896000D02*
X129132000Y-54896000D01*
X129132000Y-54896000D02*
X129132000Y-61436000D01*
X129132000Y-61436000D02*
X128802000Y-61436000D01*
%TO.C,R16*%
X131472000Y-54896000D02*
X131472000Y-61436000D01*
X131472000Y-61436000D02*
X131802000Y-61436000D01*
X131802000Y-54896000D02*
X131472000Y-54896000D01*
X133882000Y-54896000D02*
X134212000Y-54896000D01*
X134212000Y-54896000D02*
X134212000Y-61436000D01*
X134212000Y-61436000D02*
X133882000Y-61436000D01*
%TO.C,R20*%
X135282000Y-79788000D02*
X135282000Y-86328000D01*
X135282000Y-86328000D02*
X135612000Y-86328000D01*
X135612000Y-79788000D02*
X135282000Y-79788000D01*
X137692000Y-79788000D02*
X138022000Y-79788000D01*
X138022000Y-79788000D02*
X138022000Y-86328000D01*
X138022000Y-86328000D02*
X137692000Y-86328000D01*
%TO.C,U3*%
X121860000Y-67205000D02*
X121860000Y-72505000D01*
X121860000Y-72505000D02*
X132140000Y-72505000D01*
X132140000Y-67205000D02*
X121860000Y-67205000D01*
X132140000Y-68855000D02*
X132140000Y-67205000D01*
X132140000Y-72505000D02*
X132140000Y-70855000D01*
X132140000Y-70855000D02*
G75*
G02*
X132140000Y-68855000I0J1000000D01*
G01*
%TO.C,R19*%
X140108000Y-80042000D02*
X140438000Y-80042000D01*
X140108000Y-86582000D02*
X140108000Y-80042000D01*
X140438000Y-86582000D02*
X140108000Y-86582000D01*
X142518000Y-86582000D02*
X142848000Y-86582000D01*
X142848000Y-80042000D02*
X142518000Y-80042000D01*
X142848000Y-86582000D02*
X142848000Y-80042000D01*
%TO.C,R18*%
X144934000Y-80296000D02*
X144934000Y-86836000D01*
X144934000Y-86836000D02*
X145264000Y-86836000D01*
X145264000Y-80296000D02*
X144934000Y-80296000D01*
X147344000Y-80296000D02*
X147674000Y-80296000D01*
X147674000Y-80296000D02*
X147674000Y-86836000D01*
X147674000Y-86836000D02*
X147344000Y-86836000D01*
%TO.C,U2*%
X95698000Y-69740000D02*
X95698000Y-71390000D01*
X95698000Y-73390000D02*
X95698000Y-75040000D01*
X95698000Y-75040000D02*
X105978000Y-75040000D01*
X105978000Y-69740000D02*
X95698000Y-69740000D01*
X105978000Y-75040000D02*
X105978000Y-69740000D01*
X95698000Y-71390000D02*
G75*
G02*
X95698000Y-73390000I0J-1000000D01*
G01*
%TO.C,R11*%
X107342000Y-74200000D02*
X107342000Y-80740000D01*
X107342000Y-80740000D02*
X107672000Y-80740000D01*
X107672000Y-74200000D02*
X107342000Y-74200000D01*
X109752000Y-74200000D02*
X110082000Y-74200000D01*
X110082000Y-74200000D02*
X110082000Y-80740000D01*
X110082000Y-80740000D02*
X109752000Y-80740000D01*
%TO.C,R12*%
X118264000Y-78518000D02*
X118594000Y-78518000D01*
X118264000Y-85058000D02*
X118264000Y-78518000D01*
X118594000Y-85058000D02*
X118264000Y-85058000D01*
X120674000Y-85058000D02*
X121004000Y-85058000D01*
X121004000Y-78518000D02*
X120674000Y-78518000D01*
X121004000Y-85058000D02*
X121004000Y-78518000D01*
%TO.C,R8*%
X97822000Y-64162000D02*
X97822000Y-64492000D01*
X97822000Y-66902000D02*
X97822000Y-66572000D01*
X104362000Y-64162000D02*
X97822000Y-64162000D01*
X104362000Y-64492000D02*
X104362000Y-64162000D01*
X104362000Y-66572000D02*
X104362000Y-66902000D01*
X104362000Y-66902000D02*
X97822000Y-66902000D01*
%TO.C,C7*%
X118792000Y-60352000D02*
X124032000Y-60352000D01*
X118792000Y-60689000D02*
X118792000Y-60352000D01*
X118792000Y-63092000D02*
X118792000Y-62755000D01*
X124032000Y-60352000D02*
X124032000Y-60689000D01*
X124032000Y-62755000D02*
X124032000Y-63092000D01*
X124032000Y-63092000D02*
X118792000Y-63092000D01*
%TO.C,R13*%
X117248000Y-66580000D02*
X117578000Y-66580000D01*
X117248000Y-73120000D02*
X117248000Y-66580000D01*
X117578000Y-73120000D02*
X117248000Y-73120000D01*
X119658000Y-73120000D02*
X119988000Y-73120000D01*
X119988000Y-66580000D02*
X119658000Y-66580000D01*
X119988000Y-73120000D02*
X119988000Y-66580000D01*
%TO.C,R21*%
X149506000Y-70136000D02*
X149836000Y-70136000D01*
X149506000Y-76676000D02*
X149506000Y-70136000D01*
X149836000Y-76676000D02*
X149506000Y-76676000D01*
X151916000Y-76676000D02*
X152246000Y-76676000D01*
X152246000Y-70136000D02*
X151916000Y-70136000D01*
X152246000Y-76676000D02*
X152246000Y-70136000D01*
%TO.C,R9*%
X103278000Y-54896000D02*
X103278000Y-61436000D01*
X103278000Y-61436000D02*
X103608000Y-61436000D01*
X103608000Y-54896000D02*
X103278000Y-54896000D01*
X105688000Y-54896000D02*
X106018000Y-54896000D01*
X106018000Y-54896000D02*
X106018000Y-61436000D01*
X106018000Y-61436000D02*
X105688000Y-61436000D01*
%TO.C,C8*%
X142452000Y-55472000D02*
X146092000Y-55472000D01*
X142452000Y-55772000D02*
X142452000Y-55472000D01*
X142452000Y-57812000D02*
X142452000Y-57512000D01*
X146092000Y-55472000D02*
X146092000Y-55772000D01*
X146092000Y-57512000D02*
X146092000Y-57812000D01*
X146092000Y-57812000D02*
X142452000Y-57812000D01*
%TO.C,J4*%
X148988000Y-80403000D02*
X150368000Y-80403000D01*
X148988000Y-81783000D02*
X148988000Y-80403000D01*
X148988000Y-83053000D02*
X148988000Y-85703000D01*
X148988000Y-83053000D02*
X151748000Y-83053000D01*
X148988000Y-85703000D02*
X151748000Y-85703000D01*
X151748000Y-83053000D02*
X151748000Y-85703000D01*
%TO.C,C3*%
X129894000Y-76158000D02*
X130194000Y-76158000D01*
X129894000Y-79798000D02*
X129894000Y-76158000D01*
X130194000Y-79798000D02*
X129894000Y-79798000D01*
X131934000Y-76158000D02*
X132234000Y-76158000D01*
X132234000Y-76158000D02*
X132234000Y-79798000D01*
X132234000Y-79798000D02*
X131934000Y-79798000D01*
%TO.C,R23*%
X143542000Y-60098000D02*
X143542000Y-60428000D01*
X143542000Y-62838000D02*
X143542000Y-62508000D01*
X150082000Y-60098000D02*
X143542000Y-60098000D01*
X150082000Y-60428000D02*
X150082000Y-60098000D01*
X150082000Y-62508000D02*
X150082000Y-62838000D01*
X150082000Y-62838000D02*
X143542000Y-62838000D01*
%TO.C,C2*%
X107288000Y-68030000D02*
X107588000Y-68030000D01*
X107288000Y-71670000D02*
X107288000Y-68030000D01*
X107588000Y-71670000D02*
X107288000Y-71670000D01*
X109328000Y-68030000D02*
X109628000Y-68030000D01*
X109628000Y-68030000D02*
X109628000Y-71670000D01*
X109628000Y-71670000D02*
X109328000Y-71670000D01*
%TO.C,C6*%
X112734000Y-83412000D02*
X116374000Y-83412000D01*
X112734000Y-83712000D02*
X112734000Y-83412000D01*
X112734000Y-85752000D02*
X112734000Y-85452000D01*
X116374000Y-83412000D02*
X116374000Y-83712000D01*
X116374000Y-85452000D02*
X116374000Y-85752000D01*
X116374000Y-85752000D02*
X112734000Y-85752000D01*
%TO.C,C5*%
X111352000Y-68030000D02*
X111652000Y-68030000D01*
X111352000Y-71670000D02*
X111352000Y-68030000D01*
X111652000Y-71670000D02*
X111352000Y-71670000D01*
X113392000Y-68030000D02*
X113692000Y-68030000D01*
X113692000Y-68030000D02*
X113692000Y-71670000D01*
X113692000Y-71670000D02*
X113392000Y-71670000D01*
%TO.C,R24*%
X126138000Y-77248000D02*
X126468000Y-77248000D01*
X126138000Y-83788000D02*
X126138000Y-77248000D01*
X126468000Y-83788000D02*
X126138000Y-83788000D01*
X128548000Y-83788000D02*
X128878000Y-83788000D01*
X128878000Y-77248000D02*
X128548000Y-77248000D01*
X128878000Y-83788000D02*
X128878000Y-77248000D01*
%TO.C,R17*%
X110390000Y-54642000D02*
X110720000Y-54642000D01*
X110390000Y-61182000D02*
X110390000Y-54642000D01*
X110720000Y-61182000D02*
X110390000Y-61182000D01*
X112800000Y-61182000D02*
X113130000Y-61182000D01*
X113130000Y-54642000D02*
X112800000Y-54642000D01*
X113130000Y-61182000D02*
X113130000Y-54642000D01*
%TO.C,R10*%
X111914000Y-74454000D02*
X111914000Y-80994000D01*
X111914000Y-80994000D02*
X112244000Y-80994000D01*
X112244000Y-74454000D02*
X111914000Y-74454000D01*
X114324000Y-74454000D02*
X114654000Y-74454000D01*
X114654000Y-74454000D02*
X114654000Y-80994000D01*
X114654000Y-80994000D02*
X114324000Y-80994000D01*
%TD*%
M02*
