%TF.GenerationSoftware,KiCad,Pcbnew,10.0.3*%
%TF.CreationDate,2026-06-05T13:22:49+01:00*%
%TF.ProjectId,pcbs,70636273-2e6b-4696-9361-645f70636258,rev?*%
%TF.SameCoordinates,Original*%
%TF.FileFunction,Soldermask,Bot*%
%TF.FilePolarity,Negative*%
%FSLAX46Y46*%
G04 Gerber Fmt 4.6, Leading zero omitted, Abs format (unit mm)*
G04 Created by KiCad (PCBNEW 10.0.3) date 2026-06-05 13:22:49*
%MOMM*%
%LPD*%
G01*
G04 APERTURE LIST*
G04 Aperture macros list*
%AMRoundRect*
0 Rectangle with rounded corners*
0 $1 Rounding radius*
0 $2 $3 $4 $5 $6 $7 $8 $9 X,Y pos of 4 corners*
0 Add a 4 corners polygon primitive as box body*
4,1,4,$2,$3,$4,$5,$6,$7,$8,$9,$2,$3,0*
0 Add four circle primitives for the rounded corners*
1,1,$1+$1,$2,$3*
1,1,$1+$1,$4,$5*
1,1,$1+$1,$6,$7*
1,1,$1+$1,$8,$9*
0 Add four rect primitives between the rounded corners*
20,1,$1+$1,$2,$3,$4,$5,0*
20,1,$1+$1,$4,$5,$6,$7,0*
20,1,$1+$1,$6,$7,$8,$9,0*
20,1,$1+$1,$8,$9,$2,$3,0*%
G04 Aperture macros list end*
%ADD10R,1.700000X1.700000*%
%ADD11C,1.700000*%
%ADD12C,1.600000*%
%ADD13RoundRect,0.250000X0.550000X-0.550000X0.550000X0.550000X-0.550000X0.550000X-0.550000X-0.550000X0*%
%ADD14C,3.200000*%
%ADD15RoundRect,0.250000X-0.550000X0.550000X-0.550000X-0.550000X0.550000X-0.550000X0.550000X0.550000X0*%
G04 APERTURE END LIST*
D10*
%TO.C,J1*%
X138176000Y-61214000D03*
D11*
X138176000Y-58674000D03*
X138176000Y-56134000D03*
X138176000Y-53594000D03*
%TD*%
D12*
%TO.C,R14*%
X123698000Y-56134000D03*
X116078000Y-56134000D03*
%TD*%
D13*
%TO.C,U4*%
X137922000Y-76957000D03*
D12*
X140462000Y-76957000D03*
X143002000Y-76957000D03*
X145542000Y-76957000D03*
X145542000Y-69337000D03*
X143002000Y-69337000D03*
X140462000Y-69337000D03*
X137922000Y-69337000D03*
%TD*%
%TO.C,R22*%
X143002000Y-66548000D03*
X150622000Y-66548000D03*
%TD*%
D10*
%TO.C,J3*%
X112522000Y-65278000D03*
D11*
X109982000Y-65278000D03*
%TD*%
D14*
%TO.C,REF\u002A\u002A*%
X151638000Y-53848000D03*
%TD*%
D15*
%TO.C,D1*%
X139954000Y-64106315D03*
D12*
X139954000Y-66646315D03*
%TD*%
%TO.C,R15*%
X127762000Y-54356000D03*
X127762000Y-61976000D03*
%TD*%
%TO.C,R16*%
X132842000Y-54356000D03*
X132842000Y-61976000D03*
%TD*%
%TO.C,R20*%
X136652000Y-79248000D03*
X136652000Y-86868000D03*
%TD*%
D15*
%TO.C,U3*%
X130810000Y-66045000D03*
D12*
X128270000Y-66045000D03*
X125730000Y-66045000D03*
X123190000Y-66045000D03*
X123190000Y-73665000D03*
X125730000Y-73665000D03*
X128270000Y-73665000D03*
X130810000Y-73665000D03*
%TD*%
%TO.C,R19*%
X141478000Y-87122000D03*
X141478000Y-79502000D03*
%TD*%
%TO.C,R18*%
X146304000Y-79756000D03*
X146304000Y-87376000D03*
%TD*%
D13*
%TO.C,U2*%
X97028000Y-76200000D03*
D12*
X99568000Y-76200000D03*
X102108000Y-76200000D03*
X104648000Y-76200000D03*
X104648000Y-68580000D03*
X102108000Y-68580000D03*
X99568000Y-68580000D03*
X97028000Y-68580000D03*
%TD*%
%TO.C,R11*%
X108712000Y-73660000D03*
X108712000Y-81280000D03*
%TD*%
%TO.C,R12*%
X119634000Y-85598000D03*
X119634000Y-77978000D03*
%TD*%
%TO.C,R8*%
X104902000Y-65532000D03*
X97282000Y-65532000D03*
%TD*%
%TO.C,C7*%
X123912000Y-61722000D03*
X118912000Y-61722000D03*
%TD*%
%TO.C,R13*%
X118618000Y-73660000D03*
X118618000Y-66040000D03*
%TD*%
%TO.C,R21*%
X150876000Y-77216000D03*
X150876000Y-69596000D03*
%TD*%
%TO.C,R9*%
X104648000Y-54356000D03*
X104648000Y-61976000D03*
%TD*%
%TO.C,C8*%
X145522000Y-56642000D03*
X143022000Y-56642000D03*
%TD*%
D10*
%TO.C,J4*%
X150368000Y-81783000D03*
D11*
X150368000Y-84323000D03*
%TD*%
D12*
%TO.C,C3*%
X131064000Y-76728000D03*
X131064000Y-79228000D03*
%TD*%
%TO.C,R23*%
X150622000Y-61468000D03*
X143002000Y-61468000D03*
%TD*%
%TO.C,C2*%
X108458000Y-68600000D03*
X108458000Y-71100000D03*
%TD*%
%TO.C,C6*%
X113304000Y-84582000D03*
X115804000Y-84582000D03*
%TD*%
%TO.C,C5*%
X112522000Y-68600000D03*
X112522000Y-71100000D03*
%TD*%
%TO.C,R24*%
X127508000Y-84328000D03*
X127508000Y-76708000D03*
%TD*%
%TO.C,R17*%
X111760000Y-61722000D03*
X111760000Y-54102000D03*
%TD*%
%TO.C,R10*%
X113284000Y-73914000D03*
X113284000Y-81534000D03*
%TD*%
D14*
%TO.C,REF\u002A\u002A*%
X99568000Y-85090000D03*
%TD*%
M02*
